<?xml version="1.0" encoding="UTF-8" standalone="no"?>
<!DOCTYPE svg PUBLIC "-//W3C//DTD SVG 1.1//EN"
 "http://www.w3.org/Graphics/SVG/1.1/DTD/svg11.dtd">
<!-- Generated by graphviz version 2.44.0 (20200408.0750)
 -->
<!-- Title: dependency&#45;cruiser output Pages: 1 -->
<svg width="445pt" height="788pt"
 viewBox="0.00 0.00 445.02 788.00" xmlns="http://www.w3.org/2000/svg" xmlns:xlink="http://www.w3.org/1999/xlink">
<g id="graph0" class="graph" transform="scale(1 1) rotate(0) translate(4 784)">
<title>dependency&#45;cruiser output</title>
<polygon fill="white" stroke="transparent" points="-4,4 -4,-784 441.02,-784 441.02,4 -4,4"/>
<g id="clust1" class="cluster">
<title>cluster_client</title>
<path fill="#ffffff" stroke="black" stroke-width="2" d="M20,-8C20,-8 417.02,-8 417.02,-8 423.02,-8 429.02,-14 429.02,-20 429.02,-20 429.02,-760 429.02,-760 429.02,-766 423.02,-772 417.02,-772 417.02,-772 20,-772 20,-772 14,-772 8,-766 8,-760 8,-760 8,-20 8,-20 8,-14 14,-8 20,-8"/>
<text text-anchor="middle" x="218.51" y="-759.9" font-family="Helvetica,sans-Serif" font-weight="bold" font-size="9.00">client</text>
</g>
<g id="clust2" class="cluster">
<title>cluster_client/src</title>
<path fill="#ffffff" stroke="black" stroke-width="2" d="M28,-16C28,-16 409.02,-16 409.02,-16 415.02,-16 421.02,-22 421.02,-28 421.02,-28 421.02,-733 421.02,-733 421.02,-739 415.02,-745 409.02,-745 409.02,-745 28,-745 28,-745 22,-745 16,-739 16,-733 16,-733 16,-28 16,-28 16,-22 22,-16 28,-16"/>
<text text-anchor="middle" x="218.51" y="-732.9" font-family="Helvetica,sans-Serif" font-weight="bold" font-size="9.00">src</text>
</g>
<g id="clust3" class="cluster">
<title>cluster_client/src/api&#45;calls</title>
<path fill="#ffffff" stroke="black" stroke-width="2" d="M219.75,-122C219.75,-122 269.77,-122 269.77,-122 275.77,-122 281.77,-128 281.77,-134 281.77,-134 281.77,-163 281.77,-163 281.77,-169 275.77,-175 269.77,-175 269.77,-175 219.75,-175 219.75,-175 213.75,-175 207.75,-169 207.75,-163 207.75,-163 207.75,-134 207.75,-134 207.75,-128 213.75,-122 219.75,-122"/>
<text text-anchor="middle" x="244.76" y="-162.9" font-family="Helvetica,sans-Serif" font-weight="bold" font-size="9.00">api&#45;calls</text>
</g>
<g id="clust4" class="cluster">
<title>cluster_client/src/components</title>
<path fill="#ffffff" stroke="black" stroke-width="2" d="M98,-244C98,-244 401.02,-244 401.02,-244 407.02,-244 413.02,-250 413.02,-256 413.02,-256 413.02,-706 413.02,-706 413.02,-712 407.02,-718 401.02,-718 401.02,-718 98,-718 98,-718 92,-718 86,-712 86,-706 86,-706 86,-256 86,-256 86,-250 92,-244 98,-244"/>
<text text-anchor="middle" x="249.51" y="-705.9" font-family="Helvetica,sans-Serif" font-weight="bold" font-size="9.00">components</text>
</g>
<g id="clust5" class="cluster">
<title>cluster_client/src/components/layout</title>
<path fill="#ffffff" stroke="black" stroke-width="2" d="M122.75,-607C122.75,-607 267.76,-607 267.76,-607 273.76,-607 279.76,-613 279.76,-619 279.76,-619 279.76,-679 279.76,-679 279.76,-685 273.76,-691 267.76,-691 267.76,-691 122.75,-691 122.75,-691 116.75,-691 110.75,-685 110.75,-679 110.75,-679 110.75,-619 110.75,-619 110.75,-613 116.75,-607 122.75,-607"/>
<text text-anchor="middle" x="195.26" y="-678.9" font-family="Helvetica,sans-Serif" font-weight="bold" font-size="9.00">layout</text>
</g>
<g id="clust6" class="cluster">
<title>cluster_client/src/components/pages</title>
<path fill="#ffffff" stroke="black" stroke-width="2" d="M106,-252C106,-252 393.02,-252 393.02,-252 399.02,-252 405.02,-258 405.02,-264 405.02,-264 405.02,-587 405.02,-587 405.02,-593 399.02,-599 393.02,-599 393.02,-599 106,-599 106,-599 100,-599 94,-593 94,-587 94,-587 94,-264 94,-264 94,-258 100,-252 106,-252"/>
<text text-anchor="middle" x="249.51" y="-586.9" font-family="Helvetica,sans-Serif" font-weight="bold" font-size="9.00">pages</text>
</g>
<g id="clust7" class="cluster">
<title>cluster_client/src/components/pages/home</title>
<path fill="#ffffff" stroke="black" stroke-width="2" d="M114,-382C114,-382 385.02,-382 385.02,-382 391.02,-382 397.02,-388 397.02,-394 397.02,-394 397.02,-560 397.02,-560 397.02,-566 391.02,-572 385.02,-572 385.02,-572 114,-572 114,-572 108,-572 102,-566 102,-560 102,-560 102,-394 102,-394 102,-388 108,-382 114,-382"/>
<text text-anchor="middle" x="249.51" y="-559.9" font-family="Helvetica,sans-Serif" font-weight="bold" font-size="9.00">home</text>
</g>
<g id="clust8" class="cluster">
<title>cluster_client/src/components/pages/questions</title>
<path fill="#ffffff" stroke="black" stroke-width="2" d="M122.75,-321C122.75,-321 168.75,-321 168.75,-321 174.75,-321 180.75,-327 180.75,-333 180.75,-333 180.75,-362 180.75,-362 180.75,-368 174.75,-374 168.75,-374 168.75,-374 122.75,-374 122.75,-374 116.75,-374 110.75,-368 110.75,-362 110.75,-362 110.75,-333 110.75,-333 110.75,-327 116.75,-321 122.75,-321"/>
<text text-anchor="middle" x="145.75" y="-361.9" font-family="Helvetica,sans-Serif" font-weight="bold" font-size="9.00">questions</text>
</g>
<g id="clust9" class="cluster">
<title>cluster_client/src/components/pages/quiz</title>
<path fill="#ffffff" stroke="black" stroke-width="2" d="M122.75,-260C122.75,-260 168.75,-260 168.75,-260 174.75,-260 180.75,-266 180.75,-272 180.75,-272 180.75,-301 180.75,-301 180.75,-307 174.75,-313 168.75,-313 168.75,-313 122.75,-313 122.75,-313 116.75,-313 110.75,-307 110.75,-301 110.75,-301 110.75,-272 110.75,-272 110.75,-266 116.75,-260 122.75,-260"/>
<text text-anchor="middle" x="145.75" y="-300.9" font-family="Helvetica,sans-Serif" font-weight="bold" font-size="9.00">quiz</text>
</g>
<g id="clust10" class="cluster">
<title>cluster_client/src/handlers</title>
<path fill="#ffffff" stroke="black" stroke-width="2" d="M221.25,-183C221.25,-183 268.27,-183 268.27,-183 274.27,-183 280.27,-189 280.27,-195 280.27,-195 280.27,-224 280.27,-224 280.27,-230 274.27,-236 268.27,-236 268.27,-236 221.25,-236 221.25,-236 215.25,-236 209.25,-230 209.25,-224 209.25,-224 209.25,-195 209.25,-195 209.25,-189 215.25,-183 221.25,-183"/>
<text text-anchor="middle" x="244.76" y="-223.9" font-family="Helvetica,sans-Serif" font-weight="bold" font-size="9.00">handlers</text>
</g>
<g id="clust11" class="cluster">
<title>cluster_client/src/init</title>
<path fill="#ffffff" stroke="black" stroke-width="2" d="M221.76,-30C221.76,-30 371.52,-30 371.52,-30 377.52,-30 383.52,-36 383.52,-42 383.52,-42 383.52,-102 383.52,-102 383.52,-108 377.52,-114 371.52,-114 371.52,-114 221.76,-114 221.76,-114 215.76,-114 209.76,-108 209.76,-102 209.76,-102 209.76,-42 209.76,-42 209.76,-36 215.76,-30 221.76,-30"/>
<text text-anchor="middle" x="296.64" y="-101.9" font-family="Helvetica,sans-Serif" font-weight="bold" font-size="9.00">init</text>
</g>
<!-- client/src/api&#45;calls/get&#45;data.js -->
<g id="node1" class="node">
<title>client/src/api&#45;calls/get&#45;data.js</title>
<g id="a_node1"><a xlink:href="../client/src/api-calls/get-data.js" xlink:title="get&#45;data.js">
<path fill="#ffffcc" stroke="black" d="M267.57,-148.3C267.57,-148.3 221.95,-148.3 221.95,-148.3 218.85,-148.3 215.75,-145.2 215.75,-142.1 215.75,-142.1 215.75,-135.9 215.75,-135.9 215.75,-132.8 218.85,-129.7 221.95,-129.7 221.95,-129.7 267.57,-129.7 267.57,-129.7 270.67,-129.7 273.77,-132.8 273.77,-135.9 273.77,-135.9 273.77,-142.1 273.77,-142.1 273.77,-145.2 270.67,-148.3 267.57,-148.3"/>
<text text-anchor="middle" x="244.76" y="-136.3" font-family="Helvetica,sans-Serif" font-size="9.00">get&#45;data.js</text>
</a>
</g>
</g>
<!-- client/src/components/layout/footer.js -->
<g id="node2" class="node">
<title>client/src/components/layout/footer.js</title>
<g id="a_node2"><a xlink:href="../client/src/components/layout/footer.js" xlink:title="footer.js">
<path fill="#ccffcc" stroke="black" d="M166.55,-664.3C166.55,-664.3 124.96,-664.3 124.96,-664.3 121.86,-664.3 118.75,-661.2 118.75,-658.1 118.75,-658.1 118.75,-651.9 118.75,-651.9 118.75,-648.8 121.86,-645.7 124.96,-645.7 124.96,-645.7 166.55,-645.7 166.55,-645.7 169.65,-645.7 172.75,-648.8 172.75,-651.9 172.75,-651.9 172.75,-658.1 172.75,-658.1 172.75,-661.2 169.65,-664.3 166.55,-664.3"/>
<text text-anchor="middle" x="145.75" y="-652.3" font-family="Helvetica,sans-Serif" font-size="9.00">footer.js</text>
</a>
</g>
</g>
<!-- client/src/components/layout/navbar.js -->
<g id="node3" class="node">
<title>client/src/components/layout/navbar.js</title>
<g id="a_node3"><a xlink:href="../client/src/components/layout/navbar.js" xlink:title="navbar.js">
<path fill="#ffffcc" stroke="black" d="M265.56,-633.3C265.56,-633.3 223.96,-633.3 223.96,-633.3 220.86,-633.3 217.76,-630.2 217.76,-627.1 217.76,-627.1 217.76,-620.9 217.76,-620.9 217.76,-617.8 220.86,-614.7 223.96,-614.7 223.96,-614.7 265.56,-614.7 265.56,-614.7 268.66,-614.7 271.76,-617.8 271.76,-620.9 271.76,-620.9 271.76,-627.1 271.76,-627.1 271.76,-630.2 268.66,-633.3 265.56,-633.3"/>
<text text-anchor="middle" x="244.76" y="-621.3" font-family="Helvetica,sans-Serif" font-size="9.00">navbar.js</text>
</a>
</g>
</g>
<!-- client/src/components/layout/page.js -->
<g id="node4" class="node">
<title>client/src/components/layout/page.js</title>
<g id="a_node4"><a xlink:href="../client/src/components/layout/page.js" xlink:title="page.js">
<path fill="#ffffcc" stroke="black" d="M166.55,-633.3C166.55,-633.3 124.96,-633.3 124.96,-633.3 121.86,-633.3 118.75,-630.2 118.75,-627.1 118.75,-627.1 118.75,-620.9 118.75,-620.9 118.75,-617.8 121.86,-614.7 124.96,-614.7 124.96,-614.7 166.55,-614.7 166.55,-614.7 169.65,-614.7 172.75,-617.8 172.75,-620.9 172.75,-620.9 172.75,-627.1 172.75,-627.1 172.75,-630.2 169.65,-633.3 166.55,-633.3"/>
<text text-anchor="middle" x="145.75" y="-621.3" font-family="Helvetica,sans-Serif" font-size="9.00">page.js</text>
</a>
</g>
</g>
<!-- client/src/components/layout/page.js&#45;&gt;client/src/components/layout/navbar.js -->
<g id="edge2" class="edge">
<title>client/src/components/layout/page.js&#45;&gt;client/src/components/layout/navbar.js</title>
<path fill="none" stroke="#000000" stroke-width="2" stroke-opacity="0.200000" d="M173.01,-624C184.76,-624 198.74,-624 211.16,-624"/>
<polygon fill="#000000" fill-opacity="0.200000" stroke="#000000" stroke-width="2" stroke-opacity="0.200000" points="211.49,-626.1 217.49,-624 211.49,-621.9 211.49,-626.1"/>
</g>
<!-- client/src/init/state.js -->
<g id="node5" class="node">
<title>client/src/init/state.js</title>
<g id="a_node5"><a xlink:href="../client/src/init/state.js" xlink:title="state.js">
<path fill="#ffffcc" stroke="black" d="M265.56,-87.3C265.56,-87.3 223.96,-87.3 223.96,-87.3 220.86,-87.3 217.76,-84.2 217.76,-81.1 217.76,-81.1 217.76,-74.9 217.76,-74.9 217.76,-71.8 220.86,-68.7 223.96,-68.7 223.96,-68.7 265.56,-68.7 265.56,-68.7 268.66,-68.7 271.76,-71.8 271.76,-74.9 271.76,-74.9 271.76,-81.1 271.76,-81.1 271.76,-84.2 268.66,-87.3 265.56,-87.3"/>
<text text-anchor="middle" x="244.76" y="-75.3" font-family="Helvetica,sans-Serif" font-size="9.00">state.js</text>
</a>
</g>
</g>
<!-- client/src/components/layout/page.js&#45;&gt;client/src/init/state.js -->
<g id="edge1" class="edge">
<title>client/src/components/layout/page.js&#45;&gt;client/src/init/state.js</title>
<path fill="none" stroke="#000000" stroke-width="2" stroke-opacity="0.200000" d="M156.16,-614.47C164.57,-605.25 176.35,-590.43 181.51,-575 197.58,-526.93 172.35,-164.59 194.51,-119 200.23,-107.24 211.07,-97.64 221.13,-90.69"/>
<polygon fill="#000000" fill-opacity="0.200000" stroke="#000000" stroke-width="2" stroke-opacity="0.200000" points="222.43,-92.35 226.29,-87.3 220.13,-88.84 222.43,-92.35"/>
</g>
<!-- client/src/components/pages/home/about&#45;paragraph.js -->
<g id="node6" class="node">
<title>client/src/components/pages/home/about&#45;paragraph.js</title>
<g id="a_node6"><a xlink:href="../client/src/components/pages/home/about-paragraph.js" xlink:title="about&#45;paragraph.js">
<path fill="#ffffcc" stroke="black" d="M284.08,-408.3C284.08,-408.3 205.44,-408.3 205.44,-408.3 202.34,-408.3 199.24,-405.2 199.24,-402.1 199.24,-402.1 199.24,-395.9 199.24,-395.9 199.24,-392.8 202.34,-389.7 205.44,-389.7 205.44,-389.7 284.08,-389.7 284.08,-389.7 287.18,-389.7 290.28,-392.8 290.28,-395.9 290.28,-395.9 290.28,-402.1 290.28,-402.1 290.28,-405.2 287.18,-408.3 284.08,-408.3"/>
<text text-anchor="middle" x="244.76" y="-396.3" font-family="Helvetica,sans-Serif" font-size="9.00">about&#45;paragraph.js</text>
</a>
</g>
</g>
<!-- client/src/components/pages/home/create&#45;header.js -->
<g id="node7" class="node">
<title>client/src/components/pages/home/create&#45;header.js</title>
<g id="a_node7"><a xlink:href="../client/src/components/pages/home/create-header.js" xlink:title="create&#45;header.js">
<path fill="#ffffcc" stroke="black" d="M382.83,-408.3C382.83,-408.3 314.21,-408.3 314.21,-408.3 311.11,-408.3 308.01,-405.2 308.01,-402.1 308.01,-402.1 308.01,-395.9 308.01,-395.9 308.01,-392.8 311.11,-389.7 314.21,-389.7 314.21,-389.7 382.83,-389.7 382.83,-389.7 385.93,-389.7 389.03,-392.8 389.03,-395.9 389.03,-395.9 389.03,-402.1 389.03,-402.1 389.03,-405.2 385.93,-408.3 382.83,-408.3"/>
<text text-anchor="middle" x="348.52" y="-396.3" font-family="Helvetica,sans-Serif" font-size="9.00">create&#45;header.js</text>
</a>
</g>
</g>
<!-- client/src/components/pages/home/about&#45;paragraph.js&#45;&gt;client/src/components/pages/home/create&#45;header.js -->
<g id="edge3" class="edge">
<title>client/src/components/pages/home/about&#45;paragraph.js&#45;&gt;client/src/components/pages/home/create&#45;header.js</title>
<path fill="none" stroke="#000000" stroke-width="2" stroke-opacity="0.200000" d="M290.39,-399C294.09,-399 297.83,-399 301.53,-399"/>
<polygon fill="#000000" fill-opacity="0.200000" stroke="#000000" stroke-width="2" stroke-opacity="0.200000" points="301.72,-401.1 307.72,-399 301.72,-396.9 301.72,-401.1"/>
</g>
<!-- client/src/components/pages/home/create&#45;header.js&#45;&gt;client/src/init/state.js -->
<g id="edge4" class="edge">
<title>client/src/components/pages/home/create&#45;header.js&#45;&gt;client/src/init/state.js</title>
<path fill="none" stroke="#000000" stroke-width="2" stroke-opacity="0.200000" d="M347.96,-389.51C349.29,-352.18 350.11,-212.83 295.01,-119 288.3,-107.56 277.15,-97.89 267.16,-90.81"/>
<polygon fill="#000000" fill-opacity="0.200000" stroke="#000000" stroke-width="2" stroke-opacity="0.200000" points="268.22,-88.99 262.08,-87.35 265.86,-92.46 268.22,-88.99"/>
</g>
<!-- client/src/components/pages/home/create&#45;avatar.js -->
<g id="node8" class="node">
<title>client/src/components/pages/home/create&#45;avatar.js</title>
<g id="a_node8"><a xlink:href="../client/src/components/pages/home/create-avatar.js" xlink:title="create&#45;avatar.js">
<path fill="#ffffcc" stroke="black" d="M277.57,-439.3C277.57,-439.3 211.95,-439.3 211.95,-439.3 208.85,-439.3 205.75,-436.2 205.75,-433.1 205.75,-433.1 205.75,-426.9 205.75,-426.9 205.75,-423.8 208.85,-420.7 211.95,-420.7 211.95,-420.7 277.57,-420.7 277.57,-420.7 280.67,-420.7 283.77,-423.8 283.77,-426.9 283.77,-426.9 283.77,-433.1 283.77,-433.1 283.77,-436.2 280.67,-439.3 277.57,-439.3"/>
<text text-anchor="middle" x="244.76" y="-427.3" font-family="Helvetica,sans-Serif" font-size="9.00">create&#45;avatar.js</text>
</a>
</g>
</g>
<!-- client/src/components/pages/home/create&#45;profile&#45;card.js -->
<g id="node9" class="node">
<title>client/src/components/pages/home/create&#45;profile&#45;card.js</title>
<g id="a_node9"><a xlink:href="../client/src/components/pages/home/create-profile-card.js" xlink:title="create&#45;profile&#45;card.js">
<path fill="#ffffcc" stroke="black" d="M287.56,-483.3C287.56,-483.3 201.96,-483.3 201.96,-483.3 198.86,-483.3 195.76,-480.2 195.76,-477.1 195.76,-477.1 195.76,-470.9 195.76,-470.9 195.76,-467.8 198.86,-464.7 201.96,-464.7 201.96,-464.7 287.56,-464.7 287.56,-464.7 290.66,-464.7 293.76,-467.8 293.76,-470.9 293.76,-470.9 293.76,-477.1 293.76,-477.1 293.76,-480.2 290.66,-483.3 287.56,-483.3"/>
<text text-anchor="middle" x="244.76" y="-471.3" font-family="Helvetica,sans-Serif" font-size="9.00">create&#45;profile&#45;card.js</text>
</a>
</g>
</g>
<!-- client/src/components/pages/home/create&#45;project&#45;card.js -->
<g id="node10" class="node">
<title>client/src/components/pages/home/create&#45;project&#45;card.js</title>
<g id="a_node10"><a xlink:href="../client/src/components/pages/home/create-project-card.js" xlink:title="create&#45;project&#45;card.js">
<path fill="#ffffcc" stroke="black" d="M288.56,-514.3C288.56,-514.3 200.96,-514.3 200.96,-514.3 197.86,-514.3 194.76,-511.2 194.76,-508.1 194.76,-508.1 194.76,-501.9 194.76,-501.9 194.76,-498.8 197.86,-495.7 200.96,-495.7 200.96,-495.7 288.56,-495.7 288.56,-495.7 291.66,-495.7 294.76,-498.8 294.76,-501.9 294.76,-501.9 294.76,-508.1 294.76,-508.1 294.76,-511.2 291.66,-514.3 288.56,-514.3"/>
<text text-anchor="middle" x="244.76" y="-502.3" font-family="Helvetica,sans-Serif" font-size="9.00">create&#45;project&#45;card.js</text>
</a>
</g>
</g>
<!-- client/src/components/pages/home/get&#45;email.js -->
<g id="node11" class="node">
<title>client/src/components/pages/home/get&#45;email.js</title>
<g id="a_node11"><a xlink:href="../client/src/components/pages/home/get-email.js" xlink:title="get&#45;email.js">
<path fill="#ffffcc" stroke="black" d="M269.56,-545.3C269.56,-545.3 219.96,-545.3 219.96,-545.3 216.86,-545.3 213.76,-542.2 213.76,-539.1 213.76,-539.1 213.76,-532.9 213.76,-532.9 213.76,-529.8 216.86,-526.7 219.96,-526.7 219.96,-526.7 269.56,-526.7 269.56,-526.7 272.66,-526.7 275.76,-529.8 275.76,-532.9 275.76,-532.9 275.76,-539.1 275.76,-539.1 275.76,-542.2 272.66,-545.3 269.56,-545.3"/>
<text text-anchor="middle" x="244.76" y="-533.3" font-family="Helvetica,sans-Serif" font-size="9.00">get&#45;email.js</text>
</a>
</g>
</g>
<!-- client/src/components/pages/home/get&#45;location.js -->
<g id="node12" class="node">
<title>client/src/components/pages/home/get&#45;location.js</title>
<g id="a_node12"><a xlink:href="../client/src/components/pages/home/get-location.js" xlink:title="get&#45;location.js">
<path fill="#ccffcc" stroke="black" d="M175.06,-518.3C175.06,-518.3 116.44,-518.3 116.44,-518.3 113.34,-518.3 110.24,-515.2 110.24,-512.1 110.24,-512.1 110.24,-505.9 110.24,-505.9 110.24,-502.8 113.34,-499.7 116.44,-499.7 116.44,-499.7 175.06,-499.7 175.06,-499.7 178.17,-499.7 181.27,-502.8 181.27,-505.9 181.27,-505.9 181.27,-512.1 181.27,-512.1 181.27,-515.2 178.17,-518.3 175.06,-518.3"/>
<text text-anchor="middle" x="145.75" y="-506.3" font-family="Helvetica,sans-Serif" font-size="9.00">get&#45;location.js</text>
</a>
</g>
</g>
<!-- client/src/components/pages/home/index.js -->
<g id="node13" class="node">
<title>client/src/components/pages/home/index.js</title>
<g id="a_node13"><a xlink:href="../client/src/components/pages/home/index.js" xlink:title="index.js">
<path fill="#ffffcc" stroke="black" d="M166.55,-450.3C166.55,-450.3 124.96,-450.3 124.96,-450.3 121.86,-450.3 118.75,-447.2 118.75,-444.1 118.75,-444.1 118.75,-437.9 118.75,-437.9 118.75,-434.8 121.86,-431.7 124.96,-431.7 124.96,-431.7 166.55,-431.7 166.55,-431.7 169.65,-431.7 172.75,-434.8 172.75,-437.9 172.75,-437.9 172.75,-444.1 172.75,-444.1 172.75,-447.2 169.65,-450.3 166.55,-450.3"/>
<text text-anchor="middle" x="145.75" y="-438.3" font-family="Helvetica,sans-Serif" font-size="9.00">index.js</text>
</a>
</g>
</g>
<!-- client/src/components/pages/home/index.js&#45;&gt;client/src/api&#45;calls/get&#45;data.js -->
<g id="edge5" class="edge">
<title>client/src/components/pages/home/index.js&#45;&gt;client/src/api&#45;calls/get&#45;data.js</title>
<path fill="none" stroke="#000000" stroke-width="2" stroke-opacity="0.200000" d="M153.57,-431.6C161.85,-419.6 175.46,-397.89 181.51,-377 193.71,-334.86 174.59,-219.09 194.51,-180 200.44,-168.35 211.31,-158.76 221.33,-151.79"/>
<polygon fill="#000000" fill-opacity="0.200000" stroke="#000000" stroke-width="2" stroke-opacity="0.200000" points="222.62,-153.45 226.46,-148.38 220.3,-149.95 222.62,-153.45"/>
</g>
<!-- client/src/components/pages/home/index.js&#45;&gt;client/src/components/pages/home/about&#45;paragraph.js -->
<g id="edge7" class="edge">
<title>client/src/components/pages/home/index.js&#45;&gt;client/src/components/pages/home/about&#45;paragraph.js</title>
<path fill="none" stroke="#000000" stroke-width="2" stroke-opacity="0.200000" d="M162.31,-431.58C171.47,-426.28 183.41,-419.78 194.51,-415 198.28,-413.38 202.28,-411.82 206.29,-410.37"/>
<polygon fill="#000000" fill-opacity="0.200000" stroke="#000000" stroke-width="2" stroke-opacity="0.200000" points="207.21,-412.27 212.17,-408.3 205.82,-408.31 207.21,-412.27"/>
</g>
<!-- client/src/components/pages/home/index.js&#45;&gt;client/src/components/pages/home/create&#45;header.js -->
<g id="edge9" class="edge">
<title>client/src/components/pages/home/index.js&#45;&gt;client/src/components/pages/home/create&#45;header.js</title>
<path fill="none" stroke="#000000" stroke-width="2" stroke-opacity="0.200000" d="M172.91,-447.49C203.33,-453.75 254.52,-460.23 295.01,-445 311.73,-438.71 326.61,-424.41 336.22,-413.41"/>
<polygon fill="#000000" fill-opacity="0.200000" stroke="#000000" stroke-width="2" stroke-opacity="0.200000" points="337.99,-414.57 340.25,-408.63 334.78,-411.86 337.99,-414.57"/>
</g>
<!-- client/src/components/pages/home/index.js&#45;&gt;client/src/components/pages/home/create&#45;avatar.js -->
<g id="edge8" class="edge">
<title>client/src/components/pages/home/index.js&#45;&gt;client/src/components/pages/home/create&#45;avatar.js</title>
<path fill="none" stroke="#000000" stroke-width="2" stroke-opacity="0.200000" d="M173.01,-438.02C181.12,-437.1 190.3,-436.06 199.29,-435.04"/>
<polygon fill="#000000" fill-opacity="0.200000" stroke="#000000" stroke-width="2" stroke-opacity="0.200000" points="199.74,-437.11 205.47,-434.34 199.27,-432.93 199.74,-437.11"/>
</g>
<!-- client/src/components/pages/home/index.js&#45;&gt;client/src/components/pages/home/create&#45;profile&#45;card.js -->
<g id="edge10" class="edge">
<title>client/src/components/pages/home/index.js&#45;&gt;client/src/components/pages/home/create&#45;profile&#45;card.js</title>
<path fill="none" stroke="#000000" stroke-width="2" stroke-opacity="0.200000" d="M173.01,-449.93C184.48,-453.83 198.08,-458.46 210.27,-462.61"/>
<polygon fill="#000000" fill-opacity="0.200000" stroke="#000000" stroke-width="2" stroke-opacity="0.200000" points="209.78,-464.66 216.13,-464.6 211.13,-460.68 209.78,-464.66"/>
</g>
<!-- client/src/components/pages/home/index.js&#45;&gt;client/src/components/pages/home/create&#45;project&#45;card.js -->
<g id="edge11" class="edge">
<title>client/src/components/pages/home/index.js&#45;&gt;client/src/components/pages/home/create&#45;project&#45;card.js</title>
<path fill="none" stroke="#000000" stroke-width="2" stroke-opacity="0.200000" d="M153.84,-450.45C162.38,-461.22 177.68,-478.66 194.51,-489 197.01,-490.54 199.68,-491.94 202.42,-493.22"/>
<polygon fill="#000000" fill-opacity="0.200000" stroke="#000000" stroke-width="2" stroke-opacity="0.200000" points="201.8,-495.24 208.14,-495.69 203.46,-491.39 201.8,-495.24"/>
</g>
<!-- client/src/components/pages/home/index.js&#45;&gt;client/src/components/pages/home/get&#45;email.js -->
<g id="edge12" class="edge">
<title>client/src/components/pages/home/index.js&#45;&gt;client/src/components/pages/home/get&#45;email.js</title>
<path fill="none" stroke="#000000" stroke-width="2" stroke-opacity="0.200000" d="M153.51,-450.55C160.78,-461.01 172.51,-478.36 181.51,-494 187.95,-505.2 184.72,-511.57 194.51,-520 198.43,-523.37 203.07,-526.04 207.91,-528.14"/>
<polygon fill="#000000" fill-opacity="0.200000" stroke="#000000" stroke-width="2" stroke-opacity="0.200000" points="207.31,-530.16 213.66,-530.36 208.82,-526.24 207.31,-530.16"/>
</g>
<!-- client/src/handlers/append.js -->
<g id="node14" class="node">
<title>client/src/handlers/append.js</title>
<g id="a_node14"><a xlink:href="../client/src/handlers/append.js" xlink:title="append.js">
<path fill="#ffffcc" stroke="black" d="M266.08,-209.3C266.08,-209.3 223.44,-209.3 223.44,-209.3 220.34,-209.3 217.24,-206.2 217.24,-203.1 217.24,-203.1 217.24,-196.9 217.24,-196.9 217.24,-193.8 220.34,-190.7 223.44,-190.7 223.44,-190.7 266.08,-190.7 266.08,-190.7 269.18,-190.7 272.28,-193.8 272.28,-196.9 272.28,-196.9 272.28,-203.1 272.28,-203.1 272.28,-206.2 269.18,-209.3 266.08,-209.3"/>
<text text-anchor="middle" x="244.76" y="-197.3" font-family="Helvetica,sans-Serif" font-size="9.00">append.js</text>
</a>
</g>
</g>
<!-- client/src/components/pages/home/index.js&#45;&gt;client/src/handlers/append.js -->
<g id="edge6" class="edge">
<title>client/src/components/pages/home/index.js&#45;&gt;client/src/handlers/append.js</title>
<path fill="none" stroke="#000000" stroke-width="2" stroke-opacity="0.200000" d="M152.42,-431.7C159.73,-419.45 172.58,-397.11 181.51,-377 207.3,-318.91 229.94,-246.55 239.25,-215.41"/>
<polygon fill="#000000" fill-opacity="0.200000" stroke="#000000" stroke-width="2" stroke-opacity="0.200000" points="241.34,-215.77 241.03,-209.42 237.31,-214.57 241.34,-215.77"/>
</g>
<!-- client/src/components/pages/questions/index.js -->
<g id="node15" class="node">
<title>client/src/components/pages/questions/index.js</title>
<g id="a_node15"><a xlink:href="../client/src/components/pages/questions/index.js" xlink:title="index.js">
<path fill="#ccffcc" stroke="black" d="M166.55,-347.3C166.55,-347.3 124.96,-347.3 124.96,-347.3 121.86,-347.3 118.75,-344.2 118.75,-341.1 118.75,-341.1 118.75,-334.9 118.75,-334.9 118.75,-331.8 121.86,-328.7 124.96,-328.7 124.96,-328.7 166.55,-328.7 166.55,-328.7 169.65,-328.7 172.75,-331.8 172.75,-334.9 172.75,-334.9 172.75,-341.1 172.75,-341.1 172.75,-344.2 169.65,-347.3 166.55,-347.3"/>
<text text-anchor="middle" x="145.75" y="-335.3" font-family="Helvetica,sans-Serif" font-size="9.00">index.js</text>
</a>
</g>
</g>
<!-- client/src/components/pages/quiz/index.js -->
<g id="node16" class="node">
<title>client/src/components/pages/quiz/index.js</title>
<g id="a_node16"><a xlink:href="../client/src/components/pages/quiz/index.js" xlink:title="index.js">
<path fill="#ccffcc" stroke="black" d="M166.55,-286.3C166.55,-286.3 124.96,-286.3 124.96,-286.3 121.86,-286.3 118.75,-283.2 118.75,-280.1 118.75,-280.1 118.75,-273.9 118.75,-273.9 118.75,-270.8 121.86,-267.7 124.96,-267.7 124.96,-267.7 166.55,-267.7 166.55,-267.7 169.65,-267.7 172.75,-270.8 172.75,-273.9 172.75,-273.9 172.75,-280.1 172.75,-280.1 172.75,-283.2 169.65,-286.3 166.55,-286.3"/>
<text text-anchor="middle" x="145.75" y="-274.3" font-family="Helvetica,sans-Serif" font-size="9.00">index.js</text>
</a>
</g>
</g>
<!-- client/src/init/index.js -->
<g id="node17" class="node">
<title>client/src/init/index.js</title>
<g id="a_node17"><a xlink:href="../client/src/init/index.js" xlink:title="index.js">
<path fill="#ffffcc" stroke="black" d="M265.56,-56.3C265.56,-56.3 223.96,-56.3 223.96,-56.3 220.86,-56.3 217.76,-53.2 217.76,-50.1 217.76,-50.1 217.76,-43.9 217.76,-43.9 217.76,-40.8 220.86,-37.7 223.96,-37.7 223.96,-37.7 265.56,-37.7 265.56,-37.7 268.66,-37.7 271.76,-40.8 271.76,-43.9 271.76,-43.9 271.76,-50.1 271.76,-50.1 271.76,-53.2 268.66,-56.3 265.56,-56.3"/>
<text text-anchor="middle" x="244.76" y="-44.3" font-family="Helvetica,sans-Serif" font-size="9.00">index.js</text>
</a>
</g>
</g>
<!-- client/src/init/router.js -->
<g id="node18" class="node">
<title>client/src/init/router.js</title>
<g id="a_node18"><a xlink:href="../client/src/init/router.js" xlink:title="router.js">
<path fill="#ffffcc" stroke="black" d="M369.32,-56.3C369.32,-56.3 327.72,-56.3 327.72,-56.3 324.62,-56.3 321.52,-53.2 321.52,-50.1 321.52,-50.1 321.52,-43.9 321.52,-43.9 321.52,-40.8 324.62,-37.7 327.72,-37.7 327.72,-37.7 369.32,-37.7 369.32,-37.7 372.42,-37.7 375.52,-40.8 375.52,-43.9 375.52,-43.9 375.52,-50.1 375.52,-50.1 375.52,-53.2 372.42,-56.3 369.32,-56.3"/>
<text text-anchor="middle" x="348.52" y="-44.3" font-family="Helvetica,sans-Serif" font-size="9.00">router.js</text>
</a>
</g>
</g>
<!-- client/src/init/index.js&#45;&gt;client/src/init/router.js -->
<g id="edge13" class="edge">
<title>client/src/init/index.js&#45;&gt;client/src/init/router.js</title>
<path fill="none" stroke="#000000" stroke-width="2" stroke-opacity="0.200000" d="M271.97,-47C285.14,-47 301.23,-47 315.17,-47"/>
<polygon fill="#000000" fill-opacity="0.200000" stroke="#000000" stroke-width="2" stroke-opacity="0.200000" points="315.4,-49.1 321.4,-47 315.4,-44.9 315.4,-49.1"/>
</g>
<!-- client/src/routes.js -->
<g id="node19" class="node">
<title>client/src/routes.js</title>
<g id="a_node19"><a xlink:href="../client/src/routes.js" xlink:title="routes.js">
<path fill="#ffffcc" stroke="black" d="M71.8,-450.3C71.8,-450.3 30.2,-450.3 30.2,-450.3 27.1,-450.3 24,-447.2 24,-444.1 24,-444.1 24,-437.9 24,-437.9 24,-434.8 27.1,-431.7 30.2,-431.7 30.2,-431.7 71.8,-431.7 71.8,-431.7 74.9,-431.7 78,-434.8 78,-437.9 78,-437.9 78,-444.1 78,-444.1 78,-447.2 74.9,-450.3 71.8,-450.3"/>
<text text-anchor="middle" x="51" y="-438.3" font-family="Helvetica,sans-Serif" font-size="9.00">routes.js</text>
</a>
</g>
</g>
<!-- client/src/init/router.js&#45;&gt;client/src/routes.js -->
<g id="edge14" class="edge">
<title>client/src/init/router.js&#45;&gt;client/src/routes.js</title>
<path fill="none" stroke="#000000" stroke-width="2" stroke-opacity="0.200000" d="M327.12,-37.59C295.96,-24.75 235.76,-6.1 194.51,-32 53.81,-120.35 49.82,-360.86 51.37,-425.07"/>
<polygon fill="#000000" fill-opacity="0.200000" stroke="#000000" stroke-width="2" stroke-opacity="0.200000" points="49.28,-425.43 51.55,-431.37 53.48,-425.31 49.28,-425.43"/>
</g>
<!-- client/src/routes.js&#45;&gt;client/src/components/layout/page.js -->
<g id="edge15" class="edge">
<title>client/src/routes.js&#45;&gt;client/src/components/layout/page.js</title>
<path fill="none" stroke="#000000" stroke-width="2" stroke-opacity="0.200000" d="M52.43,-450.55C53.87,-473.67 60.03,-533.77 86,-575 95.35,-589.85 110.7,-602.42 123.37,-611.11"/>
<polygon fill="#000000" fill-opacity="0.200000" stroke="#000000" stroke-width="2" stroke-opacity="0.200000" points="122.45,-613.02 128.6,-614.6 124.77,-609.53 122.45,-613.02"/>
</g>
<!-- client/src/routes.js&#45;&gt;client/src/components/pages/home/index.js -->
<g id="edge16" class="edge">
<title>client/src/routes.js&#45;&gt;client/src/components/pages/home/index.js</title>
<path fill="none" stroke="#000000" stroke-width="2" stroke-opacity="0.200000" d="M78.33,-441C89,-441 101.41,-441 112.61,-441"/>
<polygon fill="#000000" fill-opacity="0.200000" stroke="#000000" stroke-width="2" stroke-opacity="0.200000" points="112.68,-443.1 118.68,-441 112.68,-438.9 112.68,-443.1"/>
</g>
</g>
</svg>
