<?xml version="1.0" encoding="UTF-8" standalone="no"?>
<!DOCTYPE svg PUBLIC "-//W3C//DTD SVG 1.1//EN"
 "http://www.w3.org/Graphics/SVG/1.1/DTD/svg11.dtd">
<!-- Generated by graphviz version 2.44.0 (20200408.0750)
 -->
<!-- Title: dependency&#45;cruiser output Pages: 1 -->
<svg width="443pt" height="757pt"
 viewBox="0.00 0.00 442.52 757.00" xmlns="http://www.w3.org/2000/svg" xmlns:xlink="http://www.w3.org/1999/xlink">
<g id="graph0" class="graph" transform="scale(1 1) rotate(0) translate(4 753)">
<title>dependency&#45;cruiser output</title>
<polygon fill="white" stroke="transparent" points="-4,4 -4,-753 438.52,-753 438.52,4 -4,4"/>
<g id="clust1" class="cluster">
<title>cluster_client</title>
<path fill="#ffffff" stroke="black" stroke-width="2" d="M20,-8C20,-8 414.52,-8 414.52,-8 420.52,-8 426.52,-14 426.52,-20 426.52,-20 426.52,-729 426.52,-729 426.52,-735 420.52,-741 414.52,-741 414.52,-741 20,-741 20,-741 14,-741 8,-735 8,-729 8,-729 8,-20 8,-20 8,-14 14,-8 20,-8"/>
<text text-anchor="middle" x="217.26" y="-728.9" font-family="Helvetica,sans-Serif" font-weight="bold" font-size="9.00">client</text>
</g>
<g id="clust2" class="cluster">
<title>cluster_client/src</title>
<path fill="#ffffff" stroke="black" stroke-width="2" d="M28,-16C28,-16 406.52,-16 406.52,-16 412.52,-16 418.52,-22 418.52,-28 418.52,-28 418.52,-702 418.52,-702 418.52,-708 412.52,-714 406.52,-714 406.52,-714 28,-714 28,-714 22,-714 16,-708 16,-702 16,-702 16,-28 16,-28 16,-22 22,-16 28,-16"/>
<text text-anchor="middle" x="217.26" y="-701.9" font-family="Helvetica,sans-Serif" font-weight="bold" font-size="9.00">src</text>
</g>
<g id="clust3" class="cluster">
<title>cluster_client/src/api&#45;calls</title>
<path fill="#ffffff" stroke="black" stroke-width="2" d="M218.5,-122C218.5,-122 268.52,-122 268.52,-122 274.52,-122 280.52,-128 280.52,-134 280.52,-134 280.52,-163 280.52,-163 280.52,-169 274.52,-175 268.52,-175 268.52,-175 218.5,-175 218.5,-175 212.5,-175 206.5,-169 206.5,-163 206.5,-163 206.5,-134 206.5,-134 206.5,-128 212.5,-122 218.5,-122"/>
<text text-anchor="middle" x="243.51" y="-162.9" font-family="Helvetica,sans-Serif" font-weight="bold" font-size="9.00">api&#45;calls</text>
</g>
<g id="clust4" class="cluster">
<title>cluster_client/src/components</title>
<path fill="#ffffff" stroke="black" stroke-width="2" d="M98,-244C98,-244 398.52,-244 398.52,-244 404.52,-244 410.52,-250 410.52,-256 410.52,-256 410.52,-675 410.52,-675 410.52,-681 404.52,-687 398.52,-687 398.52,-687 98,-687 98,-687 92,-687 86,-681 86,-675 86,-675 86,-256 86,-256 86,-250 92,-244 98,-244"/>
<text text-anchor="middle" x="248.26" y="-674.9" font-family="Helvetica,sans-Serif" font-weight="bold" font-size="9.00">components</text>
</g>
<g id="clust5" class="cluster">
<title>cluster_client/src/components/layout</title>
<path fill="#ffffff" stroke="black" stroke-width="2" d="M122.75,-576C122.75,-576 266.51,-576 266.51,-576 272.51,-576 278.51,-582 278.51,-588 278.51,-588 278.51,-648 278.51,-648 278.51,-654 272.51,-660 266.51,-660 266.51,-660 122.75,-660 122.75,-660 116.75,-660 110.75,-654 110.75,-648 110.75,-648 110.75,-588 110.75,-588 110.75,-582 116.75,-576 122.75,-576"/>
<text text-anchor="middle" x="194.63" y="-647.9" font-family="Helvetica,sans-Serif" font-weight="bold" font-size="9.00">layout</text>
</g>
<g id="clust6" class="cluster">
<title>cluster_client/src/components/pages</title>
<path fill="#ffffff" stroke="black" stroke-width="2" d="M106,-252C106,-252 390.52,-252 390.52,-252 396.52,-252 402.52,-258 402.52,-264 402.52,-264 402.52,-556 402.52,-556 402.52,-562 396.52,-568 390.52,-568 390.52,-568 106,-568 106,-568 100,-568 94,-562 94,-556 94,-556 94,-264 94,-264 94,-258 100,-252 106,-252"/>
<text text-anchor="middle" x="248.26" y="-555.9" font-family="Helvetica,sans-Serif" font-weight="bold" font-size="9.00">pages</text>
</g>
<g id="clust7" class="cluster">
<title>cluster_client/src/components/pages/home</title>
<path fill="#ffffff" stroke="black" stroke-width="2" d="M114,-382C114,-382 382.52,-382 382.52,-382 388.52,-382 394.52,-388 394.52,-394 394.52,-394 394.52,-529 394.52,-529 394.52,-535 388.52,-541 382.52,-541 382.52,-541 114,-541 114,-541 108,-541 102,-535 102,-529 102,-529 102,-394 102,-394 102,-388 108,-382 114,-382"/>
<text text-anchor="middle" x="248.26" y="-528.9" font-family="Helvetica,sans-Serif" font-weight="bold" font-size="9.00">home</text>
</g>
<g id="clust8" class="cluster">
<title>cluster_client/src/components/pages/questions</title>
<path fill="#ffffff" stroke="black" stroke-width="2" d="M122.75,-321C122.75,-321 168.75,-321 168.75,-321 174.75,-321 180.75,-327 180.75,-333 180.75,-333 180.75,-362 180.75,-362 180.75,-368 174.75,-374 168.75,-374 168.75,-374 122.75,-374 122.75,-374 116.75,-374 110.75,-368 110.75,-362 110.75,-362 110.75,-333 110.75,-333 110.75,-327 116.75,-321 122.75,-321"/>
<text text-anchor="middle" x="145.75" y="-361.9" font-family="Helvetica,sans-Serif" font-weight="bold" font-size="9.00">questions</text>
</g>
<g id="clust9" class="cluster">
<title>cluster_client/src/components/pages/quiz</title>
<path fill="#ffffff" stroke="black" stroke-width="2" d="M122.75,-260C122.75,-260 168.75,-260 168.75,-260 174.75,-260 180.75,-266 180.75,-272 180.75,-272 180.75,-301 180.75,-301 180.75,-307 174.75,-313 168.75,-313 168.75,-313 122.75,-313 122.75,-313 116.75,-313 110.75,-307 110.75,-301 110.75,-301 110.75,-272 110.75,-272 110.75,-266 116.75,-260 122.75,-260"/>
<text text-anchor="middle" x="145.75" y="-300.9" font-family="Helvetica,sans-Serif" font-weight="bold" font-size="9.00">quiz</text>
</g>
<g id="clust10" class="cluster">
<title>cluster_client/src/handlers</title>
<path fill="#ffffff" stroke="black" stroke-width="2" d="M220,-183C220,-183 267.02,-183 267.02,-183 273.02,-183 279.02,-189 279.02,-195 279.02,-195 279.02,-224 279.02,-224 279.02,-230 273.02,-236 267.02,-236 267.02,-236 220,-236 220,-236 214,-236 208,-230 208,-224 208,-224 208,-195 208,-195 208,-189 214,-183 220,-183"/>
<text text-anchor="middle" x="243.51" y="-223.9" font-family="Helvetica,sans-Serif" font-weight="bold" font-size="9.00">handlers</text>
</g>
<g id="clust11" class="cluster">
<title>cluster_client/src/init</title>
<path fill="#ffffff" stroke="black" stroke-width="2" d="M220.51,-30C220.51,-30 369.02,-30 369.02,-30 375.02,-30 381.02,-36 381.02,-42 381.02,-42 381.02,-102 381.02,-102 381.02,-108 375.02,-114 369.02,-114 369.02,-114 220.51,-114 220.51,-114 214.51,-114 208.51,-108 208.51,-102 208.51,-102 208.51,-42 208.51,-42 208.51,-36 214.51,-30 220.51,-30"/>
<text text-anchor="middle" x="294.76" y="-101.9" font-family="Helvetica,sans-Serif" font-weight="bold" font-size="9.00">init</text>
</g>
<!-- client/src/api&#45;calls/get&#45;data.js -->
<g id="node1" class="node">
<title>client/src/api&#45;calls/get&#45;data.js</title>
<g id="a_node1"><a xlink:href="../client/src/api-calls/get-data.js" xlink:title="get&#45;data.js">
<path fill="#ffffcc" stroke="black" d="M266.32,-148.3C266.32,-148.3 220.7,-148.3 220.7,-148.3 217.6,-148.3 214.5,-145.2 214.5,-142.1 214.5,-142.1 214.5,-135.9 214.5,-135.9 214.5,-132.8 217.6,-129.7 220.7,-129.7 220.7,-129.7 266.32,-129.7 266.32,-129.7 269.42,-129.7 272.52,-132.8 272.52,-135.9 272.52,-135.9 272.52,-142.1 272.52,-142.1 272.52,-145.2 269.42,-148.3 266.32,-148.3"/>
<text text-anchor="middle" x="243.51" y="-136.3" font-family="Helvetica,sans-Serif" font-size="9.00">get&#45;data.js</text>
</a>
</g>
</g>
<!-- client/src/components/layout/footer.js -->
<g id="node2" class="node">
<title>client/src/components/layout/footer.js</title>
<g id="a_node2"><a xlink:href="../client/src/components/layout/footer.js" xlink:title="footer.js">
<path fill="#ffffcc" stroke="black" d="M264.31,-602.3C264.31,-602.3 222.71,-602.3 222.71,-602.3 219.61,-602.3 216.51,-599.2 216.51,-596.1 216.51,-596.1 216.51,-589.9 216.51,-589.9 216.51,-586.8 219.61,-583.7 222.71,-583.7 222.71,-583.7 264.31,-583.7 264.31,-583.7 267.41,-583.7 270.51,-586.8 270.51,-589.9 270.51,-589.9 270.51,-596.1 270.51,-596.1 270.51,-599.2 267.41,-602.3 264.31,-602.3"/>
<text text-anchor="middle" x="243.51" y="-590.3" font-family="Helvetica,sans-Serif" font-size="9.00">footer.js</text>
</a>
</g>
</g>
<!-- client/src/components/layout/navbar.js -->
<g id="node3" class="node">
<title>client/src/components/layout/navbar.js</title>
<g id="a_node3"><a xlink:href="../client/src/components/layout/navbar.js" xlink:title="navbar.js">
<path fill="#ffffcc" stroke="black" d="M264.31,-633.3C264.31,-633.3 222.71,-633.3 222.71,-633.3 219.61,-633.3 216.51,-630.2 216.51,-627.1 216.51,-627.1 216.51,-620.9 216.51,-620.9 216.51,-617.8 219.61,-614.7 222.71,-614.7 222.71,-614.7 264.31,-614.7 264.31,-614.7 267.41,-614.7 270.51,-617.8 270.51,-620.9 270.51,-620.9 270.51,-627.1 270.51,-627.1 270.51,-630.2 267.41,-633.3 264.31,-633.3"/>
<text text-anchor="middle" x="243.51" y="-621.3" font-family="Helvetica,sans-Serif" font-size="9.00">navbar.js</text>
</a>
</g>
</g>
<!-- client/src/components/layout/page.js -->
<g id="node4" class="node">
<title>client/src/components/layout/page.js</title>
<g id="a_node4"><a xlink:href="../client/src/components/layout/page.js" xlink:title="page.js">
<path fill="#ffffcc" stroke="black" d="M166.55,-602.3C166.55,-602.3 124.96,-602.3 124.96,-602.3 121.86,-602.3 118.75,-599.2 118.75,-596.1 118.75,-596.1 118.75,-589.9 118.75,-589.9 118.75,-586.8 121.86,-583.7 124.96,-583.7 124.96,-583.7 166.55,-583.7 166.55,-583.7 169.65,-583.7 172.75,-586.8 172.75,-589.9 172.75,-589.9 172.75,-596.1 172.75,-596.1 172.75,-599.2 169.65,-602.3 166.55,-602.3"/>
<text text-anchor="middle" x="145.75" y="-590.3" font-family="Helvetica,sans-Serif" font-size="9.00">page.js</text>
</a>
</g>
</g>
<!-- client/src/components/layout/page.js&#45;&gt;client/src/components/layout/footer.js -->
<g id="edge2" class="edge">
<title>client/src/components/layout/page.js&#45;&gt;client/src/components/layout/footer.js</title>
<path fill="none" stroke="#000000" stroke-width="2" stroke-opacity="0.200000" d="M172.92,-593C184.43,-593 198.05,-593 210.19,-593"/>
<polygon fill="#000000" fill-opacity="0.200000" stroke="#000000" stroke-width="2" stroke-opacity="0.200000" points="210.38,-595.1 216.38,-593 210.38,-590.9 210.38,-595.1"/>
</g>
<!-- client/src/components/layout/page.js&#45;&gt;client/src/components/layout/navbar.js -->
<g id="edge3" class="edge">
<title>client/src/components/layout/page.js&#45;&gt;client/src/components/layout/navbar.js</title>
<path fill="none" stroke="#000000" stroke-width="2" stroke-opacity="0.200000" d="M172.92,-601.47C184.53,-605.23 198.3,-609.69 210.52,-613.64"/>
<polygon fill="#000000" fill-opacity="0.200000" stroke="#000000" stroke-width="2" stroke-opacity="0.200000" points="210.02,-615.69 216.38,-615.54 211.31,-611.69 210.02,-615.69"/>
</g>
<!-- client/src/init/state.js -->
<g id="node5" class="node">
<title>client/src/init/state.js</title>
<g id="a_node5"><a xlink:href="../client/src/init/state.js" xlink:title="state.js">
<path fill="#ffffcc" stroke="black" d="M264.31,-87.3C264.31,-87.3 222.71,-87.3 222.71,-87.3 219.61,-87.3 216.51,-84.2 216.51,-81.1 216.51,-81.1 216.51,-74.9 216.51,-74.9 216.51,-71.8 219.61,-68.7 222.71,-68.7 222.71,-68.7 264.31,-68.7 264.31,-68.7 267.41,-68.7 270.51,-71.8 270.51,-74.9 270.51,-74.9 270.51,-81.1 270.51,-81.1 270.51,-84.2 267.41,-87.3 264.31,-87.3"/>
<text text-anchor="middle" x="243.51" y="-75.3" font-family="Helvetica,sans-Serif" font-size="9.00">state.js</text>
</a>
</g>
</g>
<!-- client/src/components/layout/page.js&#45;&gt;client/src/init/state.js -->
<g id="edge1" class="edge">
<title>client/src/components/layout/page.js&#45;&gt;client/src/init/state.js</title>
<path fill="none" stroke="#000000" stroke-width="2" stroke-opacity="0.200000" d="M156.15,-583.47C164.56,-574.25 176.33,-559.42 181.51,-544 196.54,-499.21 174.08,-161.6 194.51,-119 200.08,-107.39 210.65,-97.8 220.46,-90.82"/>
<polygon fill="#000000" fill-opacity="0.200000" stroke="#000000" stroke-width="2" stroke-opacity="0.200000" points="221.7,-92.52 225.49,-87.41 219.34,-89.04 221.7,-92.52"/>
</g>
<!-- client/src/components/pages/home/about&#45;paragraph.js -->
<g id="node6" class="node">
<title>client/src/components/pages/home/about&#45;paragraph.js</title>
<g id="a_node6"><a xlink:href="../client/src/components/pages/home/about-paragraph.js" xlink:title="about&#45;paragraph.js">
<path fill="#ffffcc" stroke="black" d="M282.83,-439.3C282.83,-439.3 204.19,-439.3 204.19,-439.3 201.09,-439.3 197.99,-436.2 197.99,-433.1 197.99,-433.1 197.99,-426.9 197.99,-426.9 197.99,-423.8 201.09,-420.7 204.19,-420.7 204.19,-420.7 282.83,-420.7 282.83,-420.7 285.93,-420.7 289.03,-423.8 289.03,-426.9 289.03,-426.9 289.03,-433.1 289.03,-433.1 289.03,-436.2 285.93,-439.3 282.83,-439.3"/>
<text text-anchor="middle" x="243.51" y="-427.3" font-family="Helvetica,sans-Serif" font-size="9.00">about&#45;paragraph.js</text>
</a>
</g>
</g>
<!-- client/src/components/pages/home/create&#45;header.js -->
<g id="node7" class="node">
<title>client/src/components/pages/home/create&#45;header.js</title>
<g id="a_node7"><a xlink:href="../client/src/components/pages/home/create-header.js" xlink:title="create&#45;header.js">
<path fill="#ffffcc" stroke="black" d="M380.33,-439.3C380.33,-439.3 311.7,-439.3 311.7,-439.3 308.6,-439.3 305.5,-436.2 305.5,-433.1 305.5,-433.1 305.5,-426.9 305.5,-426.9 305.5,-423.8 308.6,-420.7 311.7,-420.7 311.7,-420.7 380.33,-420.7 380.33,-420.7 383.43,-420.7 386.53,-423.8 386.53,-426.9 386.53,-426.9 386.53,-433.1 386.53,-433.1 386.53,-436.2 383.43,-439.3 380.33,-439.3"/>
<text text-anchor="middle" x="346.02" y="-427.3" font-family="Helvetica,sans-Serif" font-size="9.00">create&#45;header.js</text>
</a>
</g>
</g>
<!-- client/src/components/pages/home/about&#45;paragraph.js&#45;&gt;client/src/components/pages/home/create&#45;header.js -->
<g id="edge4" class="edge">
<title>client/src/components/pages/home/about&#45;paragraph.js&#45;&gt;client/src/components/pages/home/create&#45;header.js</title>
<path fill="none" stroke="#000000" stroke-width="2" stroke-opacity="0.200000" d="M289.18,-430C292.44,-430 295.73,-430 298.99,-430"/>
<polygon fill="#000000" fill-opacity="0.200000" stroke="#000000" stroke-width="2" stroke-opacity="0.200000" points="299.23,-432.1 305.23,-430 299.23,-427.9 299.23,-432.1"/>
</g>
<!-- client/src/components/pages/home/create&#45;header.js&#45;&gt;client/src/init/state.js -->
<g id="edge5" class="edge">
<title>client/src/components/pages/home/create&#45;header.js&#45;&gt;client/src/init/state.js</title>
<path fill="none" stroke="#000000" stroke-width="2" stroke-opacity="0.200000" d="M344.28,-420.41C340.58,-374 323.02,-172.83 292.51,-119 286.07,-107.63 275.22,-97.96 265.46,-90.87"/>
<polygon fill="#000000" fill-opacity="0.200000" stroke="#000000" stroke-width="2" stroke-opacity="0.200000" points="266.61,-89.11 260.48,-87.4 264.21,-92.56 266.61,-89.11"/>
</g>
<!-- client/src/components/pages/home/create&#45;avatar.js -->
<g id="node8" class="node">
<title>client/src/components/pages/home/create&#45;avatar.js</title>
<g id="a_node8"><a xlink:href="../client/src/components/pages/home/create-avatar.js" xlink:title="create&#45;avatar.js">
<path fill="#ffffcc" stroke="black" d="M276.32,-470.3C276.32,-470.3 210.7,-470.3 210.7,-470.3 207.6,-470.3 204.5,-467.2 204.5,-464.1 204.5,-464.1 204.5,-457.9 204.5,-457.9 204.5,-454.8 207.6,-451.7 210.7,-451.7 210.7,-451.7 276.32,-451.7 276.32,-451.7 279.42,-451.7 282.52,-454.8 282.52,-457.9 282.52,-457.9 282.52,-464.1 282.52,-464.1 282.52,-467.2 279.42,-470.3 276.32,-470.3"/>
<text text-anchor="middle" x="243.51" y="-458.3" font-family="Helvetica,sans-Serif" font-size="9.00">create&#45;avatar.js</text>
</a>
</g>
</g>
<!-- client/src/components/pages/home/create&#45;profile&#45;card.js -->
<g id="node9" class="node">
<title>client/src/components/pages/home/create&#45;profile&#45;card.js</title>
<g id="a_node9"><a xlink:href="../client/src/components/pages/home/create-profile-card.js" xlink:title="create&#45;profile&#45;card.js">
<path fill="#ffffcc" stroke="black" d="M286.31,-514.3C286.31,-514.3 200.71,-514.3 200.71,-514.3 197.61,-514.3 194.51,-511.2 194.51,-508.1 194.51,-508.1 194.51,-501.9 194.51,-501.9 194.51,-498.8 197.61,-495.7 200.71,-495.7 200.71,-495.7 286.31,-495.7 286.31,-495.7 289.41,-495.7 292.51,-498.8 292.51,-501.9 292.51,-501.9 292.51,-508.1 292.51,-508.1 292.51,-511.2 289.41,-514.3 286.31,-514.3"/>
<text text-anchor="middle" x="243.51" y="-502.3" font-family="Helvetica,sans-Serif" font-size="9.00">create&#45;profile&#45;card.js</text>
</a>
</g>
</g>
<!-- client/src/components/pages/home/get&#45;email.js -->
<g id="node10" class="node">
<title>client/src/components/pages/home/get&#45;email.js</title>
<g id="a_node10"><a xlink:href="../client/src/components/pages/home/get-email.js" xlink:title="get&#45;email.js">
<path fill="#ffffcc" stroke="black" d="M268.31,-408.3C268.31,-408.3 218.71,-408.3 218.71,-408.3 215.61,-408.3 212.51,-405.2 212.51,-402.1 212.51,-402.1 212.51,-395.9 212.51,-395.9 212.51,-392.8 215.61,-389.7 218.71,-389.7 218.71,-389.7 268.31,-389.7 268.31,-389.7 271.41,-389.7 274.51,-392.8 274.51,-395.9 274.51,-395.9 274.51,-402.1 274.51,-402.1 274.51,-405.2 271.41,-408.3 268.31,-408.3"/>
<text text-anchor="middle" x="243.51" y="-396.3" font-family="Helvetica,sans-Serif" font-size="9.00">get&#45;email.js</text>
</a>
</g>
</g>
<!-- client/src/components/pages/home/get&#45;location.js -->
<g id="node11" class="node">
<title>client/src/components/pages/home/get&#45;location.js</title>
<g id="a_node11"><a xlink:href="../client/src/components/pages/home/get-location.js" xlink:title="get&#45;location.js">
<path fill="#ccffcc" stroke="black" d="M175.06,-492.3C175.06,-492.3 116.44,-492.3 116.44,-492.3 113.34,-492.3 110.24,-489.2 110.24,-486.1 110.24,-486.1 110.24,-479.9 110.24,-479.9 110.24,-476.8 113.34,-473.7 116.44,-473.7 116.44,-473.7 175.06,-473.7 175.06,-473.7 178.17,-473.7 181.27,-476.8 181.27,-479.9 181.27,-479.9 181.27,-486.1 181.27,-486.1 181.27,-489.2 178.17,-492.3 175.06,-492.3"/>
<text text-anchor="middle" x="145.75" y="-480.3" font-family="Helvetica,sans-Serif" font-size="9.00">get&#45;location.js</text>
</a>
</g>
</g>
<!-- client/src/components/pages/home/index.js -->
<g id="node12" class="node">
<title>client/src/components/pages/home/index.js</title>
<g id="a_node12"><a xlink:href="../client/src/components/pages/home/index.js" xlink:title="index.js">
<path fill="#ffffcc" stroke="black" d="M166.55,-439.3C166.55,-439.3 124.96,-439.3 124.96,-439.3 121.86,-439.3 118.75,-436.2 118.75,-433.1 118.75,-433.1 118.75,-426.9 118.75,-426.9 118.75,-423.8 121.86,-420.7 124.96,-420.7 124.96,-420.7 166.55,-420.7 166.55,-420.7 169.65,-420.7 172.75,-423.8 172.75,-426.9 172.75,-426.9 172.75,-433.1 172.75,-433.1 172.75,-436.2 169.65,-439.3 166.55,-439.3"/>
<text text-anchor="middle" x="145.75" y="-427.3" font-family="Helvetica,sans-Serif" font-size="9.00">index.js</text>
</a>
</g>
</g>
<!-- client/src/components/pages/home/index.js&#45;&gt;client/src/api&#45;calls/get&#45;data.js -->
<g id="edge6" class="edge">
<title>client/src/components/pages/home/index.js&#45;&gt;client/src/api&#45;calls/get&#45;data.js</title>
<path fill="none" stroke="#000000" stroke-width="2" stroke-opacity="0.200000" d="M155.08,-420.65C163.43,-410.64 175.85,-393.9 181.51,-377 195.44,-335.4 174.84,-219.22 194.51,-180 200.28,-168.49 210.87,-158.91 220.64,-151.91"/>
<polygon fill="#000000" fill-opacity="0.200000" stroke="#000000" stroke-width="2" stroke-opacity="0.200000" points="221.87,-153.61 225.64,-148.49 219.5,-150.14 221.87,-153.61"/>
</g>
<!-- client/src/components/pages/home/index.js&#45;&gt;client/src/components/pages/home/about&#45;paragraph.js -->
<g id="edge8" class="edge">
<title>client/src/components/pages/home/index.js&#45;&gt;client/src/components/pages/home/about&#45;paragraph.js</title>
<path fill="none" stroke="#000000" stroke-width="2" stroke-opacity="0.200000" d="M172.92,-430C178.86,-430 185.36,-430 191.92,-430"/>
<polygon fill="#000000" fill-opacity="0.200000" stroke="#000000" stroke-width="2" stroke-opacity="0.200000" points="191.96,-432.1 197.96,-430 191.96,-427.9 191.96,-432.1"/>
</g>
<!-- client/src/components/pages/home/index.js&#45;&gt;client/src/components/pages/home/create&#45;header.js -->
<g id="edge10" class="edge">
<title>client/src/components/pages/home/index.js&#45;&gt;client/src/components/pages/home/create&#45;header.js</title>
<path fill="none" stroke="#000000" stroke-width="2" stroke-opacity="0.200000" d="M155.08,-439.56C166.07,-451.89 185.11,-472.21 194.51,-476 234.9,-492.29 251.74,-491.33 292.51,-476 309.23,-469.71 324.11,-455.41 333.72,-444.41"/>
<polygon fill="#000000" fill-opacity="0.200000" stroke="#000000" stroke-width="2" stroke-opacity="0.200000" points="335.49,-445.57 337.75,-439.63 332.28,-442.86 335.49,-445.57"/>
</g>
<!-- client/src/components/pages/home/index.js&#45;&gt;client/src/components/pages/home/create&#45;avatar.js -->
<g id="edge9" class="edge">
<title>client/src/components/pages/home/index.js&#45;&gt;client/src/components/pages/home/create&#45;avatar.js</title>
<path fill="none" stroke="#000000" stroke-width="2" stroke-opacity="0.200000" d="M172.92,-438.47C183.67,-441.95 196.28,-446.03 207.78,-449.76"/>
<polygon fill="#000000" fill-opacity="0.200000" stroke="#000000" stroke-width="2" stroke-opacity="0.200000" points="207.33,-451.82 213.68,-451.67 208.62,-447.82 207.33,-451.82"/>
</g>
<!-- client/src/components/pages/home/index.js&#45;&gt;client/src/components/pages/home/create&#45;profile&#45;card.js -->
<g id="edge11" class="edge">
<title>client/src/components/pages/home/index.js&#45;&gt;client/src/components/pages/home/create&#45;profile&#45;card.js</title>
<path fill="none" stroke="#000000" stroke-width="2" stroke-opacity="0.200000" d="M156,-439.35C163.24,-446.85 173.4,-457.77 181.51,-468 187.87,-476.02 186.46,-480.69 194.51,-487 197.22,-489.13 200.22,-491.02 203.34,-492.71"/>
<polygon fill="#000000" fill-opacity="0.200000" stroke="#000000" stroke-width="2" stroke-opacity="0.200000" points="202.76,-494.76 209.07,-495.52 204.61,-490.99 202.76,-494.76"/>
</g>
<!-- client/src/components/pages/home/index.js&#45;&gt;client/src/components/pages/home/get&#45;email.js -->
<g id="edge12" class="edge">
<title>client/src/components/pages/home/index.js&#45;&gt;client/src/components/pages/home/get&#45;email.js</title>
<path fill="none" stroke="#000000" stroke-width="2" stroke-opacity="0.200000" d="M172.92,-421.53C183.67,-418.05 196.28,-413.97 207.78,-410.24"/>
<polygon fill="#000000" fill-opacity="0.200000" stroke="#000000" stroke-width="2" stroke-opacity="0.200000" points="208.62,-412.18 213.68,-408.33 207.33,-408.18 208.62,-412.18"/>
</g>
<!-- client/src/handlers/append.js -->
<g id="node13" class="node">
<title>client/src/handlers/append.js</title>
<g id="a_node13"><a xlink:href="../client/src/handlers/append.js" xlink:title="append.js">
<path fill="#ffffcc" stroke="black" d="M264.83,-209.3C264.83,-209.3 222.19,-209.3 222.19,-209.3 219.09,-209.3 215.99,-206.2 215.99,-203.1 215.99,-203.1 215.99,-196.9 215.99,-196.9 215.99,-193.8 219.09,-190.7 222.19,-190.7 222.19,-190.7 264.83,-190.7 264.83,-190.7 267.93,-190.7 271.03,-193.8 271.03,-196.9 271.03,-196.9 271.03,-203.1 271.03,-203.1 271.03,-206.2 267.93,-209.3 264.83,-209.3"/>
<text text-anchor="middle" x="243.51" y="-197.3" font-family="Helvetica,sans-Serif" font-size="9.00">append.js</text>
</a>
</g>
</g>
<!-- client/src/components/pages/home/index.js&#45;&gt;client/src/handlers/append.js -->
<g id="edge7" class="edge">
<title>client/src/components/pages/home/index.js&#45;&gt;client/src/handlers/append.js</title>
<path fill="none" stroke="#000000" stroke-width="2" stroke-opacity="0.200000" d="M153.91,-420.66C161.53,-410.4 173.56,-393.2 181.51,-377 209.45,-320.06 230.23,-247.09 238.54,-215.61"/>
<polygon fill="#000000" fill-opacity="0.200000" stroke="#000000" stroke-width="2" stroke-opacity="0.200000" points="240.64,-215.88 240.12,-209.54 236.58,-214.82 240.64,-215.88"/>
</g>
<!-- client/src/components/pages/questions/index.js -->
<g id="node14" class="node">
<title>client/src/components/pages/questions/index.js</title>
<g id="a_node14"><a xlink:href="../client/src/components/pages/questions/index.js" xlink:title="index.js">
<path fill="#ccffcc" stroke="black" d="M166.55,-347.3C166.55,-347.3 124.96,-347.3 124.96,-347.3 121.86,-347.3 118.75,-344.2 118.75,-341.1 118.75,-341.1 118.75,-334.9 118.75,-334.9 118.75,-331.8 121.86,-328.7 124.96,-328.7 124.96,-328.7 166.55,-328.7 166.55,-328.7 169.65,-328.7 172.75,-331.8 172.75,-334.9 172.75,-334.9 172.75,-341.1 172.75,-341.1 172.75,-344.2 169.65,-347.3 166.55,-347.3"/>
<text text-anchor="middle" x="145.75" y="-335.3" font-family="Helvetica,sans-Serif" font-size="9.00">index.js</text>
</a>
</g>
</g>
<!-- client/src/components/pages/quiz/index.js -->
<g id="node15" class="node">
<title>client/src/components/pages/quiz/index.js</title>
<g id="a_node15"><a xlink:href="../client/src/components/pages/quiz/index.js" xlink:title="index.js">
<path fill="#ccffcc" stroke="black" d="M166.55,-286.3C166.55,-286.3 124.96,-286.3 124.96,-286.3 121.86,-286.3 118.75,-283.2 118.75,-280.1 118.75,-280.1 118.75,-273.9 118.75,-273.9 118.75,-270.8 121.86,-267.7 124.96,-267.7 124.96,-267.7 166.55,-267.7 166.55,-267.7 169.65,-267.7 172.75,-270.8 172.75,-273.9 172.75,-273.9 172.75,-280.1 172.75,-280.1 172.75,-283.2 169.65,-286.3 166.55,-286.3"/>
<text text-anchor="middle" x="145.75" y="-274.3" font-family="Helvetica,sans-Serif" font-size="9.00">index.js</text>
</a>
</g>
</g>
<!-- client/src/init/index.js -->
<g id="node16" class="node">
<title>client/src/init/index.js</title>
<g id="a_node16"><a xlink:href="../client/src/init/index.js" xlink:title="index.js">
<path fill="#ffffcc" stroke="black" d="M264.31,-56.3C264.31,-56.3 222.71,-56.3 222.71,-56.3 219.61,-56.3 216.51,-53.2 216.51,-50.1 216.51,-50.1 216.51,-43.9 216.51,-43.9 216.51,-40.8 219.61,-37.7 222.71,-37.7 222.71,-37.7 264.31,-37.7 264.31,-37.7 267.41,-37.7 270.51,-40.8 270.51,-43.9 270.51,-43.9 270.51,-50.1 270.51,-50.1 270.51,-53.2 267.41,-56.3 264.31,-56.3"/>
<text text-anchor="middle" x="243.51" y="-44.3" font-family="Helvetica,sans-Serif" font-size="9.00">index.js</text>
</a>
</g>
</g>
<!-- client/src/init/router.js -->
<g id="node17" class="node">
<title>client/src/init/router.js</title>
<g id="a_node17"><a xlink:href="../client/src/init/router.js" xlink:title="router.js">
<path fill="#ffffcc" stroke="black" d="M366.81,-56.3C366.81,-56.3 325.22,-56.3 325.22,-56.3 322.12,-56.3 319.02,-53.2 319.02,-50.1 319.02,-50.1 319.02,-43.9 319.02,-43.9 319.02,-40.8 322.12,-37.7 325.22,-37.7 325.22,-37.7 366.81,-37.7 366.81,-37.7 369.92,-37.7 373.02,-40.8 373.02,-43.9 373.02,-43.9 373.02,-50.1 373.02,-50.1 373.02,-53.2 369.92,-56.3 366.81,-56.3"/>
<text text-anchor="middle" x="346.02" y="-44.3" font-family="Helvetica,sans-Serif" font-size="9.00">router.js</text>
</a>
</g>
</g>
<!-- client/src/init/index.js&#45;&gt;client/src/init/router.js -->
<g id="edge13" class="edge">
<title>client/src/init/index.js&#45;&gt;client/src/init/router.js</title>
<path fill="none" stroke="#000000" stroke-width="2" stroke-opacity="0.200000" d="M270.65,-47C283.57,-47 299.26,-47 312.9,-47"/>
<polygon fill="#000000" fill-opacity="0.200000" stroke="#000000" stroke-width="2" stroke-opacity="0.200000" points="313,-49.1 319,-47 313,-44.9 313,-49.1"/>
</g>
<!-- client/src/routes.js -->
<g id="node18" class="node">
<title>client/src/routes.js</title>
<g id="a_node18"><a xlink:href="../client/src/routes.js" xlink:title="routes.js">
<path fill="#ffffcc" stroke="black" d="M71.8,-439.3C71.8,-439.3 30.2,-439.3 30.2,-439.3 27.1,-439.3 24,-436.2 24,-433.1 24,-433.1 24,-426.9 24,-426.9 24,-423.8 27.1,-420.7 30.2,-420.7 30.2,-420.7 71.8,-420.7 71.8,-420.7 74.9,-420.7 78,-423.8 78,-426.9 78,-426.9 78,-433.1 78,-433.1 78,-436.2 74.9,-439.3 71.8,-439.3"/>
<text text-anchor="middle" x="51" y="-427.3" font-family="Helvetica,sans-Serif" font-size="9.00">routes.js</text>
</a>
</g>
</g>
<!-- client/src/init/router.js&#45;&gt;client/src/routes.js -->
<g id="edge14" class="edge">
<title>client/src/init/router.js&#45;&gt;client/src/routes.js</title>
<path fill="none" stroke="#000000" stroke-width="2" stroke-opacity="0.200000" d="M324.96,-37.7C294.3,-24.99 235.09,-6.51 194.51,-32 57.18,-118.24 50.75,-352.09 51.56,-414.51"/>
<polygon fill="#000000" fill-opacity="0.200000" stroke="#000000" stroke-width="2" stroke-opacity="0.200000" points="49.46,-414.67 51.67,-420.63 53.66,-414.6 49.46,-414.67"/>
</g>
<!-- client/src/routes.js&#45;&gt;client/src/components/layout/page.js -->
<g id="edge15" class="edge">
<title>client/src/routes.js&#45;&gt;client/src/components/layout/page.js</title>
<path fill="none" stroke="#000000" stroke-width="2" stroke-opacity="0.200000" d="M52.94,-439.33C55.38,-459.83 63.38,-509.68 86,-544 95.72,-558.75 111.2,-571.4 123.83,-580.15"/>
<polygon fill="#000000" fill-opacity="0.200000" stroke="#000000" stroke-width="2" stroke-opacity="0.200000" points="122.89,-582.05 129.04,-583.66 125.24,-578.56 122.89,-582.05"/>
</g>
<!-- client/src/routes.js&#45;&gt;client/src/components/pages/home/index.js -->
<g id="edge16" class="edge">
<title>client/src/routes.js&#45;&gt;client/src/components/pages/home/index.js</title>
<path fill="none" stroke="#000000" stroke-width="2" stroke-opacity="0.200000" d="M78.33,-430C89,-430 101.41,-430 112.61,-430"/>
<polygon fill="#000000" fill-opacity="0.200000" stroke="#000000" stroke-width="2" stroke-opacity="0.200000" points="112.68,-432.1 118.68,-430 112.68,-427.9 112.68,-432.1"/>
</g>
</g>
</svg>
