<?xml version="1.0" encoding="UTF-8" standalone="no"?>
<!DOCTYPE svg PUBLIC "-//W3C//DTD SVG 1.1//EN"
 "http://www.w3.org/Graphics/SVG/1.1/DTD/svg11.dtd">
<!-- Generated by graphviz version 2.44.0 (20200408.0750)
 -->
<!-- Title: dependency&#45;cruiser output Pages: 1 -->
<svg width="435pt" height="431pt"
 viewBox="0.00 0.00 435.00 431.00" xmlns="http://www.w3.org/2000/svg" xmlns:xlink="http://www.w3.org/1999/xlink">
<g id="graph0" class="graph" transform="scale(1 1) rotate(0) translate(4 427)">
<title>dependency&#45;cruiser output</title>
<polygon fill="white" stroke="transparent" points="-4,4 -4,-427 431,-427 431,4 -4,4"/>
<g id="clust1" class="cluster">
<title>cluster_client</title>
<path fill="#ffffff" stroke="black" stroke-width="2" d="M20,-8C20,-8 407,-8 407,-8 413,-8 419,-14 419,-20 419,-20 419,-403 419,-403 419,-409 413,-415 407,-415 407,-415 20,-415 20,-415 14,-415 8,-409 8,-403 8,-403 8,-20 8,-20 8,-14 14,-8 20,-8"/>
<text text-anchor="middle" x="213.5" y="-402.9" font-family="Helvetica,sans-Serif" font-weight="bold" font-size="9.00">client</text>
</g>
<g id="clust2" class="cluster">
<title>cluster_client/src</title>
<path fill="#ffffff" stroke="black" stroke-width="2" d="M28,-16C28,-16 399,-16 399,-16 405,-16 411,-22 411,-28 411,-28 411,-376 411,-376 411,-382 405,-388 399,-388 399,-388 28,-388 28,-388 22,-388 16,-382 16,-376 16,-376 16,-28 16,-28 16,-22 22,-16 28,-16"/>
<text text-anchor="middle" x="213.5" y="-375.9" font-family="Helvetica,sans-Serif" font-weight="bold" font-size="9.00">src</text>
</g>
<g id="clust3" class="cluster">
<title>cluster_client/src/components</title>
<path fill="#ffffff" stroke="black" stroke-width="2" d="M243,-24C243,-24 391,-24 391,-24 397,-24 403,-30 403,-36 403,-36 403,-349 403,-349 403,-355 397,-361 391,-361 391,-361 243,-361 243,-361 237,-361 231,-355 231,-349 231,-349 231,-36 231,-36 231,-30 237,-24 243,-24"/>
<text text-anchor="middle" x="317" y="-348.9" font-family="Helvetica,sans-Serif" font-weight="bold" font-size="9.00">components</text>
</g>
<g id="clust4" class="cluster">
<title>cluster_client/src/components/layout</title>
<path fill="#ffffff" stroke="black" stroke-width="2" d="M259,-250C259,-250 383,-250 383,-250 389,-250 395,-256 395,-262 395,-262 395,-322 395,-322 395,-328 389,-334 383,-334 383,-334 259,-334 259,-334 253,-334 247,-328 247,-322 247,-322 247,-262 247,-262 247,-256 253,-250 259,-250"/>
<text text-anchor="middle" x="321" y="-321.9" font-family="Helvetica,sans-Serif" font-weight="bold" font-size="9.00">layout</text>
</g>
<g id="clust5" class="cluster">
<title>cluster_client/src/components/pages</title>
<path fill="#ffffff" stroke="black" stroke-width="2" d="M251,-32C251,-32 313,-32 313,-32 319,-32 325,-38 325,-44 325,-44 325,-230 325,-230 325,-236 319,-242 313,-242 313,-242 251,-242 251,-242 245,-242 239,-236 239,-230 239,-230 239,-44 239,-44 239,-38 245,-32 251,-32"/>
<text text-anchor="middle" x="282" y="-229.9" font-family="Helvetica,sans-Serif" font-weight="bold" font-size="9.00">pages</text>
</g>
<g id="clust6" class="cluster">
<title>cluster_client/src/components/pages/home</title>
<path fill="#ffffff" stroke="black" stroke-width="2" d="M259,-162C259,-162 305,-162 305,-162 311,-162 317,-168 317,-174 317,-174 317,-203 317,-203 317,-209 311,-215 305,-215 305,-215 259,-215 259,-215 253,-215 247,-209 247,-203 247,-203 247,-174 247,-174 247,-168 253,-162 259,-162"/>
<text text-anchor="middle" x="282" y="-202.9" font-family="Helvetica,sans-Serif" font-weight="bold" font-size="9.00">home</text>
</g>
<g id="clust7" class="cluster">
<title>cluster_client/src/components/pages/questions</title>
<path fill="#ffffff" stroke="black" stroke-width="2" d="M259,-101C259,-101 305,-101 305,-101 311,-101 317,-107 317,-113 317,-113 317,-142 317,-142 317,-148 311,-154 305,-154 305,-154 259,-154 259,-154 253,-154 247,-148 247,-142 247,-142 247,-113 247,-113 247,-107 253,-101 259,-101"/>
<text text-anchor="middle" x="282" y="-141.9" font-family="Helvetica,sans-Serif" font-weight="bold" font-size="9.00">questions</text>
</g>
<g id="clust8" class="cluster">
<title>cluster_client/src/components/pages/quiz</title>
<path fill="#ffffff" stroke="black" stroke-width="2" d="M259,-40C259,-40 305,-40 305,-40 311,-40 317,-46 317,-52 317,-52 317,-81 317,-81 317,-87 311,-93 305,-93 305,-93 259,-93 259,-93 253,-93 247,-87 247,-81 247,-81 247,-52 247,-52 247,-46 253,-40 259,-40"/>
<text text-anchor="middle" x="282" y="-80.9" font-family="Helvetica,sans-Serif" font-weight="bold" font-size="9.00">quiz</text>
</g>
<g id="clust9" class="cluster">
<title>cluster_client/src/init</title>
<path fill="#ffffff" stroke="black" stroke-width="2" d="M36,-100C36,-100 149,-100 149,-100 155,-100 161,-106 161,-112 161,-112 161,-172 161,-172 161,-178 155,-184 149,-184 149,-184 36,-184 36,-184 30,-184 24,-178 24,-172 24,-172 24,-112 24,-112 24,-106 30,-100 36,-100"/>
<text text-anchor="middle" x="92.5" y="-171.9" font-family="Helvetica,sans-Serif" font-weight="bold" font-size="9.00">init</text>
</g>
<!-- client/src/components/layout/footer.js -->
<g id="node1" class="node">
<title>client/src/components/layout/footer.js</title>
<g id="a_node1"><a xlink:href="../client/src/components/layout/footer.js" xlink:title="footer.js">
<path fill="#ffffcc" stroke="black" d="M380.8,-276.3C380.8,-276.3 339.2,-276.3 339.2,-276.3 336.1,-276.3 333,-273.2 333,-270.1 333,-270.1 333,-263.9 333,-263.9 333,-260.8 336.1,-257.7 339.2,-257.7 339.2,-257.7 380.8,-257.7 380.8,-257.7 383.9,-257.7 387,-260.8 387,-263.9 387,-263.9 387,-270.1 387,-270.1 387,-273.2 383.9,-276.3 380.8,-276.3"/>
<text text-anchor="middle" x="360" y="-264.3" font-family="Helvetica,sans-Serif" font-size="9.00">footer.js</text>
</a>
</g>
</g>
<!-- client/src/components/layout/navbar.js -->
<g id="node2" class="node">
<title>client/src/components/layout/navbar.js</title>
<g id="a_node2"><a xlink:href="../client/src/components/layout/navbar.js" xlink:title="navbar.js">
<path fill="#ffffcc" stroke="black" d="M380.8,-307.3C380.8,-307.3 339.2,-307.3 339.2,-307.3 336.1,-307.3 333,-304.2 333,-301.1 333,-301.1 333,-294.9 333,-294.9 333,-291.8 336.1,-288.7 339.2,-288.7 339.2,-288.7 380.8,-288.7 380.8,-288.7 383.9,-288.7 387,-291.8 387,-294.9 387,-294.9 387,-301.1 387,-301.1 387,-304.2 383.9,-307.3 380.8,-307.3"/>
<text text-anchor="middle" x="360" y="-295.3" font-family="Helvetica,sans-Serif" font-size="9.00">navbar.js</text>
</a>
</g>
</g>
<!-- client/src/components/layout/page.js -->
<g id="node3" class="node">
<title>client/src/components/layout/page.js</title>
<g id="a_node3"><a xlink:href="../client/src/components/layout/page.js" xlink:title="page.js">
<path fill="#ffffcc" stroke="black" d="M302.8,-276.3C302.8,-276.3 261.2,-276.3 261.2,-276.3 258.1,-276.3 255,-273.2 255,-270.1 255,-270.1 255,-263.9 255,-263.9 255,-260.8 258.1,-257.7 261.2,-257.7 261.2,-257.7 302.8,-257.7 302.8,-257.7 305.9,-257.7 309,-260.8 309,-263.9 309,-263.9 309,-270.1 309,-270.1 309,-273.2 305.9,-276.3 302.8,-276.3"/>
<text text-anchor="middle" x="282" y="-264.3" font-family="Helvetica,sans-Serif" font-size="9.00">page.js</text>
</a>
</g>
</g>
<!-- client/src/components/layout/page.js&#45;&gt;client/src/components/layout/footer.js -->
<g id="edge1" class="edge">
<title>client/src/components/layout/page.js&#45;&gt;client/src/components/layout/footer.js</title>
<path fill="none" stroke="#000000" stroke-width="2" stroke-opacity="0.200000" d="M309.15,-267C314.77,-267 320.76,-267 326.58,-267"/>
<polygon fill="#000000" fill-opacity="0.200000" stroke="#000000" stroke-width="2" stroke-opacity="0.200000" points="326.8,-269.1 332.8,-267 326.8,-264.9 326.8,-269.1"/>
</g>
<!-- client/src/components/layout/page.js&#45;&gt;client/src/components/layout/navbar.js -->
<g id="edge2" class="edge">
<title>client/src/components/layout/page.js&#45;&gt;client/src/components/layout/navbar.js</title>
<path fill="none" stroke="#000000" stroke-width="2" stroke-opacity="0.200000" d="M306.22,-276.47C313.8,-279.56 322.31,-283.04 330.25,-286.27"/>
<polygon fill="#000000" fill-opacity="0.200000" stroke="#000000" stroke-width="2" stroke-opacity="0.200000" points="329.84,-288.37 336.19,-288.7 331.43,-284.48 329.84,-288.37"/>
</g>
<!-- client/src/components/pages/home/index.js -->
<g id="node4" class="node">
<title>client/src/components/pages/home/index.js</title>
<g id="a_node4"><a xlink:href="../client/src/components/pages/home/index.js" xlink:title="index.js">
<path fill="#ffffcc" stroke="black" d="M302.8,-188.3C302.8,-188.3 261.2,-188.3 261.2,-188.3 258.1,-188.3 255,-185.2 255,-182.1 255,-182.1 255,-175.9 255,-175.9 255,-172.8 258.1,-169.7 261.2,-169.7 261.2,-169.7 302.8,-169.7 302.8,-169.7 305.9,-169.7 309,-172.8 309,-175.9 309,-175.9 309,-182.1 309,-182.1 309,-185.2 305.9,-188.3 302.8,-188.3"/>
<text text-anchor="middle" x="282" y="-176.3" font-family="Helvetica,sans-Serif" font-size="9.00">index.js</text>
</a>
</g>
</g>
<!-- client/src/components/pages/questions/index.js -->
<g id="node5" class="node">
<title>client/src/components/pages/questions/index.js</title>
<g id="a_node5"><a xlink:href="../client/src/components/pages/questions/index.js" xlink:title="index.js">
<path fill="#ffffcc" stroke="black" d="M302.8,-127.3C302.8,-127.3 261.2,-127.3 261.2,-127.3 258.1,-127.3 255,-124.2 255,-121.1 255,-121.1 255,-114.9 255,-114.9 255,-111.8 258.1,-108.7 261.2,-108.7 261.2,-108.7 302.8,-108.7 302.8,-108.7 305.9,-108.7 309,-111.8 309,-114.9 309,-114.9 309,-121.1 309,-121.1 309,-124.2 305.9,-127.3 302.8,-127.3"/>
<text text-anchor="middle" x="282" y="-115.3" font-family="Helvetica,sans-Serif" font-size="9.00">index.js</text>
</a>
</g>
</g>
<!-- client/src/components/pages/quiz/index.js -->
<g id="node6" class="node">
<title>client/src/components/pages/quiz/index.js</title>
<g id="a_node6"><a xlink:href="../client/src/components/pages/quiz/index.js" xlink:title="index.js">
<path fill="#ffffcc" stroke="black" d="M302.8,-66.3C302.8,-66.3 261.2,-66.3 261.2,-66.3 258.1,-66.3 255,-63.2 255,-60.1 255,-60.1 255,-53.9 255,-53.9 255,-50.8 258.1,-47.7 261.2,-47.7 261.2,-47.7 302.8,-47.7 302.8,-47.7 305.9,-47.7 309,-50.8 309,-53.9 309,-53.9 309,-60.1 309,-60.1 309,-63.2 305.9,-66.3 302.8,-66.3"/>
<text text-anchor="middle" x="282" y="-54.3" font-family="Helvetica,sans-Serif" font-size="9.00">index.js</text>
</a>
</g>
</g>
<!-- client/src/init/index.js -->
<g id="node7" class="node">
<title>client/src/init/index.js</title>
<g id="a_node7"><a xlink:href="../client/src/init/index.js" xlink:title="index.js">
<path fill="#ffffcc" stroke="black" d="M79.8,-157.3C79.8,-157.3 38.2,-157.3 38.2,-157.3 35.1,-157.3 32,-154.2 32,-151.1 32,-151.1 32,-144.9 32,-144.9 32,-141.8 35.1,-138.7 38.2,-138.7 38.2,-138.7 79.8,-138.7 79.8,-138.7 82.9,-138.7 86,-141.8 86,-144.9 86,-144.9 86,-151.1 86,-151.1 86,-154.2 82.9,-157.3 79.8,-157.3"/>
<text text-anchor="middle" x="59" y="-145.3" font-family="Helvetica,sans-Serif" font-size="9.00">index.js</text>
</a>
</g>
</g>
<!-- client/src/init/router.js -->
<g id="node8" class="node">
<title>client/src/init/router.js</title>
<g id="a_node8"><a xlink:href="../client/src/init/router.js" xlink:title="router.js">
<path fill="#ffffcc" stroke="black" d="M146.8,-157.3C146.8,-157.3 105.2,-157.3 105.2,-157.3 102.1,-157.3 99,-154.2 99,-151.1 99,-151.1 99,-144.9 99,-144.9 99,-141.8 102.1,-138.7 105.2,-138.7 105.2,-138.7 146.8,-138.7 146.8,-138.7 149.9,-138.7 153,-141.8 153,-144.9 153,-144.9 153,-151.1 153,-151.1 153,-154.2 149.9,-157.3 146.8,-157.3"/>
<text text-anchor="middle" x="126" y="-145.3" font-family="Helvetica,sans-Serif" font-size="9.00">router.js</text>
</a>
</g>
</g>
<!-- client/src/init/index.js&#45;&gt;client/src/init/router.js -->
<g id="edge3" class="edge">
<title>client/src/init/index.js&#45;&gt;client/src/init/router.js</title>
<path fill="none" stroke="#000000" stroke-width="2" stroke-opacity="0.200000" d="M86.06,-148C88.32,-148 90.61,-148 92.9,-148"/>
<polygon fill="#000000" fill-opacity="0.200000" stroke="#000000" stroke-width="2" stroke-opacity="0.200000" points="92.93,-150.1 98.93,-148 92.93,-145.9 92.93,-150.1"/>
</g>
<!-- client/src/routes.js -->
<g id="node9" class="node">
<title>client/src/routes.js</title>
<g id="a_node9"><a xlink:href="../client/src/routes.js" xlink:title="routes.js">
<path fill="#ffffcc" stroke="black" d="M216.8,-157.3C216.8,-157.3 175.2,-157.3 175.2,-157.3 172.1,-157.3 169,-154.2 169,-151.1 169,-151.1 169,-144.9 169,-144.9 169,-141.8 172.1,-138.7 175.2,-138.7 175.2,-138.7 216.8,-138.7 216.8,-138.7 219.9,-138.7 223,-141.8 223,-144.9 223,-144.9 223,-151.1 223,-151.1 223,-154.2 219.9,-157.3 216.8,-157.3"/>
<text text-anchor="middle" x="196" y="-145.3" font-family="Helvetica,sans-Serif" font-size="9.00">routes.js</text>
</a>
</g>
</g>
<!-- client/src/init/router.js&#45;&gt;client/src/routes.js -->
<g id="edge4" class="edge">
<title>client/src/init/router.js&#45;&gt;client/src/routes.js</title>
<path fill="none" stroke="#000000" stroke-width="2" stroke-opacity="0.200000" d="M153.1,-148C156.12,-148 159.23,-148 162.33,-148"/>
<polygon fill="#000000" fill-opacity="0.200000" stroke="#000000" stroke-width="2" stroke-opacity="0.200000" points="162.64,-150.1 168.64,-148 162.64,-145.9 162.64,-150.1"/>
</g>
<!-- client/src/routes.js&#45;&gt;client/src/components/layout/page.js -->
<g id="edge5" class="edge">
<title>client/src/routes.js&#45;&gt;client/src/components/layout/page.js</title>
<path fill="none" stroke="#000000" stroke-width="2" stroke-opacity="0.200000" d="M200.45,-157.63C205.76,-171.67 216.79,-198.26 231,-218 240.6,-231.35 254.02,-244.27 264.54,-253.49"/>
<polygon fill="#000000" fill-opacity="0.200000" stroke="#000000" stroke-width="2" stroke-opacity="0.200000" points="263.23,-255.13 269.14,-257.46 265.97,-251.95 263.23,-255.13"/>
</g>
<!-- client/src/routes.js&#45;&gt;client/src/components/pages/home/index.js -->
<g id="edge6" class="edge">
<title>client/src/routes.js&#45;&gt;client/src/components/pages/home/index.js</title>
<path fill="none" stroke="#000000" stroke-width="2" stroke-opacity="0.200000" d="M222.66,-157.47C231.29,-160.65 241.01,-164.24 250,-167.56"/>
<polygon fill="#000000" fill-opacity="0.200000" stroke="#000000" stroke-width="2" stroke-opacity="0.200000" points="249.43,-169.59 255.79,-169.7 250.88,-165.65 249.43,-169.59"/>
</g>
<!-- client/src/routes.js&#45;&gt;client/src/components/pages/questions/index.js -->
<g id="edge7" class="edge">
<title>client/src/routes.js&#45;&gt;client/src/components/pages/questions/index.js</title>
<path fill="none" stroke="#000000" stroke-width="2" stroke-opacity="0.200000" d="M223.12,-138.67C231.34,-135.74 240.5,-132.46 249.08,-129.4"/>
<polygon fill="#000000" fill-opacity="0.200000" stroke="#000000" stroke-width="2" stroke-opacity="0.200000" points="249.95,-131.32 254.9,-127.32 248.54,-127.36 249.95,-131.32"/>
</g>
<!-- client/src/routes.js&#45;&gt;client/src/components/pages/quiz/index.js -->
<g id="edge8" class="edge">
<title>client/src/routes.js&#45;&gt;client/src/components/pages/quiz/index.js</title>
<path fill="none" stroke="#000000" stroke-width="2" stroke-opacity="0.200000" d="M202.29,-138.57C208.44,-128.07 219.24,-110.86 231,-98 240.42,-87.7 252.48,-77.73 262.4,-70.21"/>
<polygon fill="#000000" fill-opacity="0.200000" stroke="#000000" stroke-width="2" stroke-opacity="0.200000" points="263.81,-71.77 267.36,-66.5 261.3,-68.41 263.81,-71.77"/>
</g>
<!-- client/src/init/state.js -->
<g id="node10" class="node">
<title>client/src/init/state.js</title>
<g id="a_node10"><a xlink:href="../client/src/init/state.js" xlink:title="state.js">
<path fill="#ccffcc" stroke="black" d="M79.8,-126.3C79.8,-126.3 38.2,-126.3 38.2,-126.3 35.1,-126.3 32,-123.2 32,-120.1 32,-120.1 32,-113.9 32,-113.9 32,-110.8 35.1,-107.7 38.2,-107.7 38.2,-107.7 79.8,-107.7 79.8,-107.7 82.9,-107.7 86,-110.8 86,-113.9 86,-113.9 86,-120.1 86,-120.1 86,-123.2 82.9,-126.3 79.8,-126.3"/>
<text text-anchor="middle" x="59" y="-114.3" font-family="Helvetica,sans-Serif" font-size="9.00">state.js</text>
</a>
</g>
</g>
</g>
</svg>
